G04 #@! TF.FileFunction,Legend,Top*
%FSLAX46Y46*%
G04 Gerber Fmt 4.6, Leading zero omitted, Abs format (unit mm)*
G04 Created by KiCad (PCBNEW 4.0.7) date 11/17/17 03:08:13*
%MOMM*%
%LPD*%
G01*
G04 APERTURE LIST*
%ADD10C,0.100000*%
%ADD11C,0.120000*%
%ADD12C,0.152400*%
%ADD13C,0.150000*%
%ADD14C,0.050000*%
G04 APERTURE END LIST*
D10*
D11*
X183916000Y-99274000D02*
X183916000Y-111894000D01*
X178796000Y-99274000D02*
X178796000Y-111894000D01*
X183916000Y-99274000D02*
X178796000Y-99274000D01*
X183916000Y-111894000D02*
X178796000Y-111894000D01*
X167132000Y-118364000D02*
X167132000Y-128524000D01*
X168402000Y-118364000D02*
X160782000Y-118364000D01*
X160782000Y-118364000D02*
X160782000Y-128524000D01*
X160782000Y-128524000D02*
X168402000Y-128524000D01*
X168402000Y-128524000D02*
X168402000Y-118364000D01*
X183388000Y-117856000D02*
X183388000Y-128016000D01*
X184658000Y-117856000D02*
X177038000Y-117856000D01*
X177038000Y-117856000D02*
X177038000Y-128016000D01*
X177038000Y-128016000D02*
X184658000Y-128016000D01*
X184658000Y-128016000D02*
X184658000Y-117856000D01*
X147828000Y-98044000D02*
X147828000Y-108204000D01*
X149098000Y-98044000D02*
X141478000Y-98044000D01*
X141478000Y-98044000D02*
X141478000Y-108204000D01*
X141478000Y-108204000D02*
X149098000Y-108204000D01*
X149098000Y-108204000D02*
X149098000Y-98044000D01*
X145170000Y-116090000D02*
X141850000Y-116090000D01*
X141850000Y-116090000D02*
X141850000Y-125210000D01*
X141850000Y-125210000D02*
X145170000Y-125210000D01*
X145170000Y-125210000D02*
X145170000Y-116090000D01*
X143510000Y-114010000D02*
X143510000Y-116090000D01*
X143510000Y-127290000D02*
X143510000Y-125210000D01*
X153044000Y-116344000D02*
X149724000Y-116344000D01*
X149724000Y-116344000D02*
X149724000Y-125464000D01*
X149724000Y-125464000D02*
X153044000Y-125464000D01*
X153044000Y-125464000D02*
X153044000Y-116344000D01*
X151384000Y-114264000D02*
X151384000Y-116344000D01*
X151384000Y-127544000D02*
X151384000Y-125464000D01*
X160032000Y-112132000D02*
X160032000Y-115452000D01*
X160032000Y-115452000D02*
X169152000Y-115452000D01*
X169152000Y-115452000D02*
X169152000Y-112132000D01*
X169152000Y-112132000D02*
X160032000Y-112132000D01*
X157952000Y-113792000D02*
X160032000Y-113792000D01*
X171232000Y-113792000D02*
X169152000Y-113792000D01*
D12*
X162052000Y-100330000D02*
X161798000Y-100330000D01*
X164592000Y-100330000D02*
X164338000Y-100330000D01*
X166878000Y-106680000D02*
X167132000Y-106680000D01*
X169545000Y-106680000D02*
X169545000Y-100330000D01*
X167132000Y-100330000D02*
X166878000Y-100330000D01*
X159385000Y-100330000D02*
X159385000Y-103200200D01*
X159385000Y-103200200D02*
X159385000Y-103809800D01*
X159385000Y-103809800D02*
X159385000Y-106172000D01*
X164338000Y-106680000D02*
X164592000Y-106680000D01*
D10*
X159385000Y-103200200D02*
G75*
G02X159385000Y-103809800I0J-304800D01*
G01*
D13*
X185523143Y-105750666D02*
X185570762Y-105798285D01*
X185618381Y-105941142D01*
X185618381Y-106036380D01*
X185570762Y-106179238D01*
X185475524Y-106274476D01*
X185380286Y-106322095D01*
X185189810Y-106369714D01*
X185046952Y-106369714D01*
X184856476Y-106322095D01*
X184761238Y-106274476D01*
X184666000Y-106179238D01*
X184618381Y-106036380D01*
X184618381Y-105941142D01*
X184666000Y-105798285D01*
X184713619Y-105750666D01*
X185618381Y-104798285D02*
X185618381Y-105369714D01*
X185618381Y-105084000D02*
X184618381Y-105084000D01*
X184761238Y-105179238D01*
X184856476Y-105274476D01*
X184904095Y-105369714D01*
X158964381Y-123777333D02*
X159678667Y-123777333D01*
X159821524Y-123824953D01*
X159916762Y-123920191D01*
X159964381Y-124063048D01*
X159964381Y-124158286D01*
X159964381Y-122777333D02*
X159964381Y-123348762D01*
X159964381Y-123063048D02*
X158964381Y-123063048D01*
X159107238Y-123158286D01*
X159202476Y-123253524D01*
X159250095Y-123348762D01*
X175220381Y-123269333D02*
X175934667Y-123269333D01*
X176077524Y-123316953D01*
X176172762Y-123412191D01*
X176220381Y-123555048D01*
X176220381Y-123650286D01*
X175315619Y-122840762D02*
X175268000Y-122793143D01*
X175220381Y-122697905D01*
X175220381Y-122459809D01*
X175268000Y-122364571D01*
X175315619Y-122316952D01*
X175410857Y-122269333D01*
X175506095Y-122269333D01*
X175648952Y-122316952D01*
X176220381Y-122888381D01*
X176220381Y-122269333D01*
X139660381Y-103457333D02*
X140374667Y-103457333D01*
X140517524Y-103504953D01*
X140612762Y-103600191D01*
X140660381Y-103743048D01*
X140660381Y-103838286D01*
X139660381Y-103076381D02*
X139660381Y-102457333D01*
X140041333Y-102790667D01*
X140041333Y-102647809D01*
X140088952Y-102552571D01*
X140136571Y-102504952D01*
X140231810Y-102457333D01*
X140469905Y-102457333D01*
X140565143Y-102504952D01*
X140612762Y-102552571D01*
X140660381Y-102647809D01*
X140660381Y-102933524D01*
X140612762Y-103028762D01*
X140565143Y-103076381D01*
X146622381Y-120816666D02*
X146146190Y-121150000D01*
X146622381Y-121388095D02*
X145622381Y-121388095D01*
X145622381Y-121007142D01*
X145670000Y-120911904D01*
X145717619Y-120864285D01*
X145812857Y-120816666D01*
X145955714Y-120816666D01*
X146050952Y-120864285D01*
X146098571Y-120911904D01*
X146146190Y-121007142D01*
X146146190Y-121388095D01*
X146622381Y-119864285D02*
X146622381Y-120435714D01*
X146622381Y-120150000D02*
X145622381Y-120150000D01*
X145765238Y-120245238D01*
X145860476Y-120340476D01*
X145908095Y-120435714D01*
X154496381Y-121070666D02*
X154020190Y-121404000D01*
X154496381Y-121642095D02*
X153496381Y-121642095D01*
X153496381Y-121261142D01*
X153544000Y-121165904D01*
X153591619Y-121118285D01*
X153686857Y-121070666D01*
X153829714Y-121070666D01*
X153924952Y-121118285D01*
X153972571Y-121165904D01*
X154020190Y-121261142D01*
X154020190Y-121642095D01*
X153591619Y-120689714D02*
X153544000Y-120642095D01*
X153496381Y-120546857D01*
X153496381Y-120308761D01*
X153544000Y-120213523D01*
X153591619Y-120165904D01*
X153686857Y-120118285D01*
X153782095Y-120118285D01*
X153924952Y-120165904D01*
X154496381Y-120737333D01*
X154496381Y-120118285D01*
X164425334Y-111584381D02*
X164092000Y-111108190D01*
X163853905Y-111584381D02*
X163853905Y-110584381D01*
X164234858Y-110584381D01*
X164330096Y-110632000D01*
X164377715Y-110679619D01*
X164425334Y-110774857D01*
X164425334Y-110917714D01*
X164377715Y-111012952D01*
X164330096Y-111060571D01*
X164234858Y-111108190D01*
X163853905Y-111108190D01*
X164758667Y-110584381D02*
X165377715Y-110584381D01*
X165044381Y-110965333D01*
X165187239Y-110965333D01*
X165282477Y-111012952D01*
X165330096Y-111060571D01*
X165377715Y-111155810D01*
X165377715Y-111393905D01*
X165330096Y-111489143D01*
X165282477Y-111536762D01*
X165187239Y-111584381D01*
X164901524Y-111584381D01*
X164806286Y-111536762D01*
X164758667Y-111489143D01*
D14*
X156775560Y-104936670D02*
X158104280Y-104936670D01*
X158260600Y-104858510D01*
X158338760Y-104780350D01*
X158416920Y-104624030D01*
X158416920Y-104311390D01*
X158338760Y-104155070D01*
X158260600Y-104076910D01*
X158104280Y-103998750D01*
X156775560Y-103998750D01*
X158416920Y-102357390D02*
X158416920Y-103295310D01*
X158416920Y-102826350D02*
X156775560Y-102826350D01*
X157010040Y-102982670D01*
X157166360Y-103138990D01*
X157244520Y-103295310D01*
X171810929Y-107261584D02*
X171810929Y-108042541D01*
X170170919Y-108042541D01*
X171810929Y-106714914D02*
X170170919Y-106714914D01*
X171342355Y-106168244D01*
X170170919Y-105621574D01*
X171810929Y-105621574D01*
X170170919Y-104996809D02*
X170170919Y-103903469D01*
X171810929Y-104606330D01*
X171810929Y-102419651D02*
X171810929Y-103356799D01*
X171810929Y-102888225D02*
X170170919Y-102888225D01*
X170405206Y-103044416D01*
X170561398Y-103200608D01*
X170639494Y-103356799D01*
X170170919Y-101872981D02*
X170170919Y-100779641D01*
X171810929Y-101482502D01*
X171810929Y-99295823D02*
X171810929Y-100232971D01*
X171810929Y-99764397D02*
X170170919Y-99764397D01*
X170405206Y-99920588D01*
X170561398Y-100076780D01*
X170639494Y-100232971D01*
M02*
