M48
;DRILL file {KiCad 4.0.7} date 11/13/17 00:53:44
;FORMAT={-:-/ absolute / inch / decimal}
FMAT,2
INCH,TZ
T1C0.016
T2C0.031
T3C0.039
T4C0.044
%
G90
G05
M72
T1
X5.2Y-4.3953
X6.3Y-3.65
X6.3Y-4.5
T2
X4.75Y-3.7
X4.75Y-4.05
X4.75Y-4.45
X5.15Y-3.7
X6.4Y-3.85
X6.4Y-4.25
T3
X5.2Y-4.1
X5.2Y-4.3953
X5.85Y-4.5
X5.95Y-4.5
X6.3Y-3.65
X6.3Y-4.5
X6.4Y-3.65
X6.4Y-4.5
T4
X5.65Y-3.9
X5.65Y-4.2
X5.75Y-3.9
X5.75Y-4.2
X5.85Y-3.9
X5.85Y-4.2
X5.95Y-3.9
X5.95Y-4.2
T0
M30
