%FSLAX45Y45*%
G04 Gerber Fmt 4.5, Leading zero omitted, Abs format (unit mm)*
G04 Created by KiCad (PCBNEW 4.0.7) date 11/13/17 00:53:44*
%MOMM*%
%LPD*%
G01*
G04 APERTURE LIST*
%ADD10C,0.127000*%
%ADD11C,0.150000*%
%ADD12C,0.200000*%
%ADD13C,0.300000*%
G04 APERTURE END LIST*
D10*
D11*
X11557000Y-8890000D02*
X11557000Y-10541000D01*
X17018000Y-8890000D02*
X11557000Y-8890000D01*
X17018000Y-9017000D02*
X17018000Y-8890000D01*
X17018000Y-12192000D02*
X11557000Y-12192000D01*
X11557000Y-12192000D02*
X11557000Y-10541000D01*
X17018000Y-9017000D02*
X17018000Y-12192000D01*
D12*
X13188000Y-11144000D02*
X13228000Y-11184000D01*
X13228000Y-11144000D02*
X13188000Y-11184000D01*
X15982000Y-9251000D02*
X16022000Y-9291000D01*
X16022000Y-9251000D02*
X15982000Y-9291000D01*
X15982000Y-11410000D02*
X16022000Y-11450000D01*
X16022000Y-11410000D02*
X15982000Y-11450000D01*
X12105000Y-9398000D02*
G75*
G03X12105000Y-9398000I-40000J0D01*
G01*
X12105000Y-10287000D02*
G75*
G03X12105000Y-10287000I-40000J0D01*
G01*
X12105000Y-11303000D02*
G75*
G03X12105000Y-11303000I-40000J0D01*
G01*
X13121000Y-9398000D02*
G75*
G03X13121000Y-9398000I-40000J0D01*
G01*
X16296000Y-9779000D02*
G75*
G03X16296000Y-9779000I-40000J0D01*
G01*
X16296000Y-10795000D02*
G75*
G03X16296000Y-10795000I-40000J0D01*
G01*
X13208000Y-10364000D02*
X13208000Y-10464000D01*
X13158000Y-10414000D02*
X13258000Y-10414000D01*
X13208000Y-11114000D02*
X13208000Y-11214000D01*
X13158000Y-11164000D02*
X13258000Y-11164000D01*
X14859000Y-11380000D02*
X14859000Y-11480000D01*
X14809000Y-11430000D02*
X14909000Y-11430000D01*
X15113000Y-11380000D02*
X15113000Y-11480000D01*
X15063000Y-11430000D02*
X15163000Y-11430000D01*
X16002000Y-9221000D02*
X16002000Y-9321000D01*
X15952000Y-9271000D02*
X16052000Y-9271000D01*
X16002000Y-11380000D02*
X16002000Y-11480000D01*
X15952000Y-11430000D02*
X16052000Y-11430000D01*
X16256000Y-9221000D02*
X16256000Y-9321000D01*
X16206000Y-9271000D02*
X16306000Y-9271000D01*
X16256000Y-11380000D02*
X16256000Y-11480000D01*
X16206000Y-11430000D02*
X16306000Y-11430000D01*
X14390513Y-9945514D02*
X14390513Y-9866487D01*
X14311486Y-9866487D01*
X14311486Y-9945514D01*
X14390513Y-9945514D01*
X14390513Y-10707514D02*
X14390513Y-10628487D01*
X14311486Y-10628487D01*
X14311486Y-10707514D01*
X14390513Y-10707514D01*
X14644513Y-9945514D02*
X14644513Y-9866487D01*
X14565486Y-9866487D01*
X14565486Y-9945514D01*
X14644513Y-9945514D01*
X14644513Y-10707514D02*
X14644513Y-10628487D01*
X14565486Y-10628487D01*
X14565486Y-10707514D01*
X14644513Y-10707514D01*
X14898513Y-9945514D02*
X14898513Y-9866487D01*
X14819486Y-9866487D01*
X14819486Y-9945514D01*
X14898513Y-9945514D01*
X14898513Y-10707514D02*
X14898513Y-10628487D01*
X14819486Y-10628487D01*
X14819486Y-10707514D01*
X14898513Y-10707514D01*
X15152513Y-9945514D02*
X15152513Y-9866487D01*
X15073486Y-9866487D01*
X15073486Y-9945514D01*
X15152513Y-9945514D01*
X15152513Y-10707514D02*
X15152513Y-10628487D01*
X15073486Y-10628487D01*
X15073486Y-10707514D01*
X15152513Y-10707514D01*
D13*
X11820928Y-12665214D02*
X11820928Y-12365214D01*
X11892357Y-12365214D01*
X11935214Y-12379500D01*
X11963786Y-12408071D01*
X11978071Y-12436643D01*
X11992357Y-12493786D01*
X11992357Y-12536643D01*
X11978071Y-12593786D01*
X11963786Y-12622357D01*
X11935214Y-12650929D01*
X11892357Y-12665214D01*
X11820928Y-12665214D01*
X12120928Y-12665214D02*
X12120928Y-12465214D01*
X12120928Y-12522357D02*
X12135214Y-12493786D01*
X12149500Y-12479500D01*
X12178071Y-12465214D01*
X12206643Y-12465214D01*
X12306643Y-12665214D02*
X12306643Y-12465214D01*
X12306643Y-12365214D02*
X12292357Y-12379500D01*
X12306643Y-12393786D01*
X12320928Y-12379500D01*
X12306643Y-12365214D01*
X12306643Y-12393786D01*
X12492357Y-12665214D02*
X12463786Y-12650929D01*
X12449500Y-12622357D01*
X12449500Y-12365214D01*
X12649500Y-12665214D02*
X12620928Y-12650929D01*
X12606643Y-12622357D01*
X12606643Y-12365214D01*
X12992357Y-12665214D02*
X12992357Y-12365214D01*
X13092357Y-12579500D01*
X13192357Y-12365214D01*
X13192357Y-12665214D01*
X13463786Y-12665214D02*
X13463786Y-12508071D01*
X13449500Y-12479500D01*
X13420928Y-12465214D01*
X13363786Y-12465214D01*
X13335214Y-12479500D01*
X13463786Y-12650929D02*
X13435214Y-12665214D01*
X13363786Y-12665214D01*
X13335214Y-12650929D01*
X13320928Y-12622357D01*
X13320928Y-12593786D01*
X13335214Y-12565214D01*
X13363786Y-12550929D01*
X13435214Y-12550929D01*
X13463786Y-12536643D01*
X13606643Y-12465214D02*
X13606643Y-12765214D01*
X13606643Y-12479500D02*
X13635214Y-12465214D01*
X13692357Y-12465214D01*
X13720928Y-12479500D01*
X13735214Y-12493786D01*
X13749500Y-12522357D01*
X13749500Y-12608071D01*
X13735214Y-12636643D01*
X13720928Y-12650929D01*
X13692357Y-12665214D01*
X13635214Y-12665214D01*
X13606643Y-12650929D01*
X13878071Y-12636643D02*
X13892357Y-12650929D01*
X13878071Y-12665214D01*
X13863786Y-12650929D01*
X13878071Y-12636643D01*
X13878071Y-12665214D01*
X13878071Y-12479500D02*
X13892357Y-12493786D01*
X13878071Y-12508071D01*
X13863786Y-12493786D01*
X13878071Y-12479500D01*
X13878071Y-12508071D01*
X11509500Y-13139500D02*
X11549500Y-13179500D01*
X11549500Y-13139500D02*
X11509500Y-13179500D01*
X11878071Y-12995214D02*
X11906643Y-12995214D01*
X11935214Y-13009500D01*
X11949500Y-13023786D01*
X11963786Y-13052357D01*
X11978071Y-13109500D01*
X11978071Y-13180929D01*
X11963786Y-13238071D01*
X11949500Y-13266643D01*
X11935214Y-13280929D01*
X11906643Y-13295214D01*
X11878071Y-13295214D01*
X11849500Y-13280929D01*
X11835214Y-13266643D01*
X11820928Y-13238071D01*
X11806643Y-13180929D01*
X11806643Y-13109500D01*
X11820928Y-13052357D01*
X11835214Y-13023786D01*
X11849500Y-13009500D01*
X11878071Y-12995214D01*
X12106643Y-13266643D02*
X12120928Y-13280929D01*
X12106643Y-13295214D01*
X12092357Y-13280929D01*
X12106643Y-13266643D01*
X12106643Y-13295214D01*
X12378071Y-13095214D02*
X12378071Y-13295214D01*
X12306643Y-12980929D02*
X12235214Y-13195214D01*
X12420928Y-13195214D01*
X12592357Y-12995214D02*
X12620928Y-12995214D01*
X12649500Y-13009500D01*
X12663786Y-13023786D01*
X12678071Y-13052357D01*
X12692357Y-13109500D01*
X12692357Y-13180929D01*
X12678071Y-13238071D01*
X12663786Y-13266643D01*
X12649500Y-13280929D01*
X12620928Y-13295214D01*
X12592357Y-13295214D01*
X12563786Y-13280929D01*
X12549500Y-13266643D01*
X12535214Y-13238071D01*
X12520928Y-13180929D01*
X12520928Y-13109500D01*
X12535214Y-13052357D01*
X12549500Y-13023786D01*
X12563786Y-13009500D01*
X12592357Y-12995214D01*
X12820928Y-13295214D02*
X12820928Y-13095214D01*
X12820928Y-13123786D02*
X12835214Y-13109500D01*
X12863786Y-13095214D01*
X12906643Y-13095214D01*
X12935214Y-13109500D01*
X12949500Y-13138071D01*
X12949500Y-13295214D01*
X12949500Y-13138071D02*
X12963786Y-13109500D01*
X12992357Y-13095214D01*
X13035214Y-13095214D01*
X13063786Y-13109500D01*
X13078071Y-13138071D01*
X13078071Y-13295214D01*
X13220928Y-13295214D02*
X13220928Y-13095214D01*
X13220928Y-13123786D02*
X13235214Y-13109500D01*
X13263786Y-13095214D01*
X13306643Y-13095214D01*
X13335214Y-13109500D01*
X13349500Y-13138071D01*
X13349500Y-13295214D01*
X13349500Y-13138071D02*
X13363786Y-13109500D01*
X13392357Y-13095214D01*
X13435214Y-13095214D01*
X13463786Y-13109500D01*
X13478071Y-13138071D01*
X13478071Y-13295214D01*
X14063786Y-12980929D02*
X13806643Y-13366643D01*
X14449500Y-12995214D02*
X14478071Y-12995214D01*
X14506643Y-13009500D01*
X14520928Y-13023786D01*
X14535214Y-13052357D01*
X14549500Y-13109500D01*
X14549500Y-13180929D01*
X14535214Y-13238071D01*
X14520928Y-13266643D01*
X14506643Y-13280929D01*
X14478071Y-13295214D01*
X14449500Y-13295214D01*
X14420928Y-13280929D01*
X14406643Y-13266643D01*
X14392357Y-13238071D01*
X14378071Y-13180929D01*
X14378071Y-13109500D01*
X14392357Y-13052357D01*
X14406643Y-13023786D01*
X14420928Y-13009500D01*
X14449500Y-12995214D01*
X14678071Y-13266643D02*
X14692357Y-13280929D01*
X14678071Y-13295214D01*
X14663786Y-13280929D01*
X14678071Y-13266643D01*
X14678071Y-13295214D01*
X14878071Y-12995214D02*
X14906643Y-12995214D01*
X14935214Y-13009500D01*
X14949500Y-13023786D01*
X14963785Y-13052357D01*
X14978071Y-13109500D01*
X14978071Y-13180929D01*
X14963785Y-13238071D01*
X14949500Y-13266643D01*
X14935214Y-13280929D01*
X14906643Y-13295214D01*
X14878071Y-13295214D01*
X14849500Y-13280929D01*
X14835214Y-13266643D01*
X14820928Y-13238071D01*
X14806643Y-13180929D01*
X14806643Y-13109500D01*
X14820928Y-13052357D01*
X14835214Y-13023786D01*
X14849500Y-13009500D01*
X14878071Y-12995214D01*
X15263785Y-13295214D02*
X15092357Y-13295214D01*
X15178071Y-13295214D02*
X15178071Y-12995214D01*
X15149500Y-13038071D01*
X15120928Y-13066643D01*
X15092357Y-13080929D01*
X15520928Y-12995214D02*
X15463785Y-12995214D01*
X15435214Y-13009500D01*
X15420928Y-13023786D01*
X15392357Y-13066643D01*
X15378071Y-13123786D01*
X15378071Y-13238071D01*
X15392357Y-13266643D01*
X15406643Y-13280929D01*
X15435214Y-13295214D01*
X15492357Y-13295214D01*
X15520928Y-13280929D01*
X15535214Y-13266643D01*
X15549500Y-13238071D01*
X15549500Y-13166643D01*
X15535214Y-13138071D01*
X15520928Y-13123786D01*
X15492357Y-13109500D01*
X15435214Y-13109500D01*
X15406643Y-13123786D01*
X15392357Y-13138071D01*
X15378071Y-13166643D01*
X15663786Y-12995214D02*
X15663786Y-13052357D01*
X15778071Y-12995214D02*
X15778071Y-13052357D01*
X16220928Y-13409500D02*
X16206643Y-13395214D01*
X16178071Y-13352357D01*
X16163785Y-13323786D01*
X16149500Y-13280929D01*
X16135214Y-13209500D01*
X16135214Y-13152357D01*
X16149500Y-13080929D01*
X16163785Y-13038071D01*
X16178071Y-13009500D01*
X16206643Y-12966643D01*
X16220928Y-12952357D01*
X16306643Y-12995214D02*
X16492357Y-12995214D01*
X16392357Y-13109500D01*
X16435214Y-13109500D01*
X16463785Y-13123786D01*
X16478071Y-13138071D01*
X16492357Y-13166643D01*
X16492357Y-13238071D01*
X16478071Y-13266643D01*
X16463785Y-13280929D01*
X16435214Y-13295214D01*
X16349500Y-13295214D01*
X16320928Y-13280929D01*
X16306643Y-13266643D01*
X16849500Y-13295214D02*
X16849500Y-12995214D01*
X16978071Y-13295214D02*
X16978071Y-13138071D01*
X16963786Y-13109500D01*
X16935214Y-13095214D01*
X16892357Y-13095214D01*
X16863786Y-13109500D01*
X16849500Y-13123786D01*
X17163786Y-13295214D02*
X17135214Y-13280929D01*
X17120928Y-13266643D01*
X17106643Y-13238071D01*
X17106643Y-13152357D01*
X17120928Y-13123786D01*
X17135214Y-13109500D01*
X17163786Y-13095214D01*
X17206643Y-13095214D01*
X17235214Y-13109500D01*
X17249500Y-13123786D01*
X17263786Y-13152357D01*
X17263786Y-13238071D01*
X17249500Y-13266643D01*
X17235214Y-13280929D01*
X17206643Y-13295214D01*
X17163786Y-13295214D01*
X17435214Y-13295214D02*
X17406643Y-13280929D01*
X17392357Y-13252357D01*
X17392357Y-12995214D01*
X17663786Y-13280929D02*
X17635214Y-13295214D01*
X17578071Y-13295214D01*
X17549500Y-13280929D01*
X17535214Y-13252357D01*
X17535214Y-13138071D01*
X17549500Y-13109500D01*
X17578071Y-13095214D01*
X17635214Y-13095214D01*
X17663786Y-13109500D01*
X17678071Y-13138071D01*
X17678071Y-13166643D01*
X17535214Y-13195214D01*
X17792357Y-13280929D02*
X17820929Y-13295214D01*
X17878071Y-13295214D01*
X17906643Y-13280929D01*
X17920929Y-13252357D01*
X17920929Y-13238071D01*
X17906643Y-13209500D01*
X17878071Y-13195214D01*
X17835214Y-13195214D01*
X17806643Y-13180929D01*
X17792357Y-13152357D01*
X17792357Y-13138071D01*
X17806643Y-13109500D01*
X17835214Y-13095214D01*
X17878071Y-13095214D01*
X17906643Y-13109500D01*
X18020928Y-13409500D02*
X18035214Y-13395214D01*
X18063786Y-13352357D01*
X18078071Y-13323786D01*
X18092357Y-13280929D01*
X18106643Y-13209500D01*
X18106643Y-13152357D01*
X18092357Y-13080929D01*
X18078071Y-13038071D01*
X18063786Y-13009500D01*
X18035214Y-12966643D01*
X18020928Y-12952357D01*
X11549500Y-13555500D02*
G75*
G03X11549500Y-13555500I-40000J0D01*
G01*
X11878071Y-13391214D02*
X11906643Y-13391214D01*
X11935214Y-13405500D01*
X11949500Y-13419786D01*
X11963786Y-13448357D01*
X11978071Y-13505500D01*
X11978071Y-13576929D01*
X11963786Y-13634071D01*
X11949500Y-13662643D01*
X11935214Y-13676929D01*
X11906643Y-13691214D01*
X11878071Y-13691214D01*
X11849500Y-13676929D01*
X11835214Y-13662643D01*
X11820928Y-13634071D01*
X11806643Y-13576929D01*
X11806643Y-13505500D01*
X11820928Y-13448357D01*
X11835214Y-13419786D01*
X11849500Y-13405500D01*
X11878071Y-13391214D01*
X12106643Y-13662643D02*
X12120928Y-13676929D01*
X12106643Y-13691214D01*
X12092357Y-13676929D01*
X12106643Y-13662643D01*
X12106643Y-13691214D01*
X12292357Y-13519786D02*
X12263786Y-13505500D01*
X12249500Y-13491214D01*
X12235214Y-13462643D01*
X12235214Y-13448357D01*
X12249500Y-13419786D01*
X12263786Y-13405500D01*
X12292357Y-13391214D01*
X12349500Y-13391214D01*
X12378071Y-13405500D01*
X12392357Y-13419786D01*
X12406643Y-13448357D01*
X12406643Y-13462643D01*
X12392357Y-13491214D01*
X12378071Y-13505500D01*
X12349500Y-13519786D01*
X12292357Y-13519786D01*
X12263786Y-13534071D01*
X12249500Y-13548357D01*
X12235214Y-13576929D01*
X12235214Y-13634071D01*
X12249500Y-13662643D01*
X12263786Y-13676929D01*
X12292357Y-13691214D01*
X12349500Y-13691214D01*
X12378071Y-13676929D01*
X12392357Y-13662643D01*
X12406643Y-13634071D01*
X12406643Y-13576929D01*
X12392357Y-13548357D01*
X12378071Y-13534071D01*
X12349500Y-13519786D01*
X12592357Y-13391214D02*
X12620928Y-13391214D01*
X12649500Y-13405500D01*
X12663786Y-13419786D01*
X12678071Y-13448357D01*
X12692357Y-13505500D01*
X12692357Y-13576929D01*
X12678071Y-13634071D01*
X12663786Y-13662643D01*
X12649500Y-13676929D01*
X12620928Y-13691214D01*
X12592357Y-13691214D01*
X12563786Y-13676929D01*
X12549500Y-13662643D01*
X12535214Y-13634071D01*
X12520928Y-13576929D01*
X12520928Y-13505500D01*
X12535214Y-13448357D01*
X12549500Y-13419786D01*
X12563786Y-13405500D01*
X12592357Y-13391214D01*
X12820928Y-13691214D02*
X12820928Y-13491214D01*
X12820928Y-13519786D02*
X12835214Y-13505500D01*
X12863786Y-13491214D01*
X12906643Y-13491214D01*
X12935214Y-13505500D01*
X12949500Y-13534071D01*
X12949500Y-13691214D01*
X12949500Y-13534071D02*
X12963786Y-13505500D01*
X12992357Y-13491214D01*
X13035214Y-13491214D01*
X13063786Y-13505500D01*
X13078071Y-13534071D01*
X13078071Y-13691214D01*
X13220928Y-13691214D02*
X13220928Y-13491214D01*
X13220928Y-13519786D02*
X13235214Y-13505500D01*
X13263786Y-13491214D01*
X13306643Y-13491214D01*
X13335214Y-13505500D01*
X13349500Y-13534071D01*
X13349500Y-13691214D01*
X13349500Y-13534071D02*
X13363786Y-13505500D01*
X13392357Y-13491214D01*
X13435214Y-13491214D01*
X13463786Y-13505500D01*
X13478071Y-13534071D01*
X13478071Y-13691214D01*
X14063786Y-13376929D02*
X13806643Y-13762643D01*
X14449500Y-13391214D02*
X14478071Y-13391214D01*
X14506643Y-13405500D01*
X14520928Y-13419786D01*
X14535214Y-13448357D01*
X14549500Y-13505500D01*
X14549500Y-13576929D01*
X14535214Y-13634071D01*
X14520928Y-13662643D01*
X14506643Y-13676929D01*
X14478071Y-13691214D01*
X14449500Y-13691214D01*
X14420928Y-13676929D01*
X14406643Y-13662643D01*
X14392357Y-13634071D01*
X14378071Y-13576929D01*
X14378071Y-13505500D01*
X14392357Y-13448357D01*
X14406643Y-13419786D01*
X14420928Y-13405500D01*
X14449500Y-13391214D01*
X14678071Y-13662643D02*
X14692357Y-13676929D01*
X14678071Y-13691214D01*
X14663786Y-13676929D01*
X14678071Y-13662643D01*
X14678071Y-13691214D01*
X14878071Y-13391214D02*
X14906643Y-13391214D01*
X14935214Y-13405500D01*
X14949500Y-13419786D01*
X14963785Y-13448357D01*
X14978071Y-13505500D01*
X14978071Y-13576929D01*
X14963785Y-13634071D01*
X14949500Y-13662643D01*
X14935214Y-13676929D01*
X14906643Y-13691214D01*
X14878071Y-13691214D01*
X14849500Y-13676929D01*
X14835214Y-13662643D01*
X14820928Y-13634071D01*
X14806643Y-13576929D01*
X14806643Y-13505500D01*
X14820928Y-13448357D01*
X14835214Y-13419786D01*
X14849500Y-13405500D01*
X14878071Y-13391214D01*
X15078071Y-13391214D02*
X15263785Y-13391214D01*
X15163785Y-13505500D01*
X15206643Y-13505500D01*
X15235214Y-13519786D01*
X15249500Y-13534071D01*
X15263785Y-13562643D01*
X15263785Y-13634071D01*
X15249500Y-13662643D01*
X15235214Y-13676929D01*
X15206643Y-13691214D01*
X15120928Y-13691214D01*
X15092357Y-13676929D01*
X15078071Y-13662643D01*
X15549500Y-13691214D02*
X15378071Y-13691214D01*
X15463785Y-13691214D02*
X15463785Y-13391214D01*
X15435214Y-13434071D01*
X15406643Y-13462643D01*
X15378071Y-13476929D01*
X15663786Y-13391214D02*
X15663786Y-13448357D01*
X15778071Y-13391214D02*
X15778071Y-13448357D01*
X16220928Y-13805500D02*
X16206643Y-13791214D01*
X16178071Y-13748357D01*
X16163785Y-13719786D01*
X16149500Y-13676929D01*
X16135214Y-13605500D01*
X16135214Y-13548357D01*
X16149500Y-13476929D01*
X16163785Y-13434071D01*
X16178071Y-13405500D01*
X16206643Y-13362643D01*
X16220928Y-13348357D01*
X16463785Y-13391214D02*
X16406643Y-13391214D01*
X16378071Y-13405500D01*
X16363785Y-13419786D01*
X16335214Y-13462643D01*
X16320928Y-13519786D01*
X16320928Y-13634071D01*
X16335214Y-13662643D01*
X16349500Y-13676929D01*
X16378071Y-13691214D01*
X16435214Y-13691214D01*
X16463785Y-13676929D01*
X16478071Y-13662643D01*
X16492357Y-13634071D01*
X16492357Y-13562643D01*
X16478071Y-13534071D01*
X16463785Y-13519786D01*
X16435214Y-13505500D01*
X16378071Y-13505500D01*
X16349500Y-13519786D01*
X16335214Y-13534071D01*
X16320928Y-13562643D01*
X16849500Y-13691214D02*
X16849500Y-13391214D01*
X16978071Y-13691214D02*
X16978071Y-13534071D01*
X16963786Y-13505500D01*
X16935214Y-13491214D01*
X16892357Y-13491214D01*
X16863786Y-13505500D01*
X16849500Y-13519786D01*
X17163786Y-13691214D02*
X17135214Y-13676929D01*
X17120928Y-13662643D01*
X17106643Y-13634071D01*
X17106643Y-13548357D01*
X17120928Y-13519786D01*
X17135214Y-13505500D01*
X17163786Y-13491214D01*
X17206643Y-13491214D01*
X17235214Y-13505500D01*
X17249500Y-13519786D01*
X17263786Y-13548357D01*
X17263786Y-13634071D01*
X17249500Y-13662643D01*
X17235214Y-13676929D01*
X17206643Y-13691214D01*
X17163786Y-13691214D01*
X17435214Y-13691214D02*
X17406643Y-13676929D01*
X17392357Y-13648357D01*
X17392357Y-13391214D01*
X17663786Y-13676929D02*
X17635214Y-13691214D01*
X17578071Y-13691214D01*
X17549500Y-13676929D01*
X17535214Y-13648357D01*
X17535214Y-13534071D01*
X17549500Y-13505500D01*
X17578071Y-13491214D01*
X17635214Y-13491214D01*
X17663786Y-13505500D01*
X17678071Y-13534071D01*
X17678071Y-13562643D01*
X17535214Y-13591214D01*
X17792357Y-13676929D02*
X17820929Y-13691214D01*
X17878071Y-13691214D01*
X17906643Y-13676929D01*
X17920929Y-13648357D01*
X17920929Y-13634071D01*
X17906643Y-13605500D01*
X17878071Y-13591214D01*
X17835214Y-13591214D01*
X17806643Y-13576929D01*
X17792357Y-13548357D01*
X17792357Y-13534071D01*
X17806643Y-13505500D01*
X17835214Y-13491214D01*
X17878071Y-13491214D01*
X17906643Y-13505500D01*
X18020928Y-13805500D02*
X18035214Y-13791214D01*
X18063786Y-13748357D01*
X18078071Y-13719786D01*
X18092357Y-13676929D01*
X18106643Y-13605500D01*
X18106643Y-13548357D01*
X18092357Y-13476929D01*
X18078071Y-13434071D01*
X18063786Y-13405500D01*
X18035214Y-13362643D01*
X18020928Y-13348357D01*
X11499500Y-13901500D02*
X11499500Y-14001500D01*
X11449500Y-13951500D02*
X11549500Y-13951500D01*
X11978071Y-14087214D02*
X11806643Y-14087214D01*
X11892357Y-14087214D02*
X11892357Y-13787214D01*
X11863786Y-13830071D01*
X11835214Y-13858643D01*
X11806643Y-13872929D01*
X12106643Y-14058643D02*
X12120928Y-14072929D01*
X12106643Y-14087214D01*
X12092357Y-14072929D01*
X12106643Y-14058643D01*
X12106643Y-14087214D01*
X12306643Y-13787214D02*
X12335214Y-13787214D01*
X12363786Y-13801500D01*
X12378071Y-13815786D01*
X12392357Y-13844357D01*
X12406643Y-13901500D01*
X12406643Y-13972929D01*
X12392357Y-14030071D01*
X12378071Y-14058643D01*
X12363786Y-14072929D01*
X12335214Y-14087214D01*
X12306643Y-14087214D01*
X12278071Y-14072929D01*
X12263786Y-14058643D01*
X12249500Y-14030071D01*
X12235214Y-13972929D01*
X12235214Y-13901500D01*
X12249500Y-13844357D01*
X12263786Y-13815786D01*
X12278071Y-13801500D01*
X12306643Y-13787214D01*
X12592357Y-13787214D02*
X12620928Y-13787214D01*
X12649500Y-13801500D01*
X12663786Y-13815786D01*
X12678071Y-13844357D01*
X12692357Y-13901500D01*
X12692357Y-13972929D01*
X12678071Y-14030071D01*
X12663786Y-14058643D01*
X12649500Y-14072929D01*
X12620928Y-14087214D01*
X12592357Y-14087214D01*
X12563786Y-14072929D01*
X12549500Y-14058643D01*
X12535214Y-14030071D01*
X12520928Y-13972929D01*
X12520928Y-13901500D01*
X12535214Y-13844357D01*
X12549500Y-13815786D01*
X12563786Y-13801500D01*
X12592357Y-13787214D01*
X12820928Y-14087214D02*
X12820928Y-13887214D01*
X12820928Y-13915786D02*
X12835214Y-13901500D01*
X12863786Y-13887214D01*
X12906643Y-13887214D01*
X12935214Y-13901500D01*
X12949500Y-13930071D01*
X12949500Y-14087214D01*
X12949500Y-13930071D02*
X12963786Y-13901500D01*
X12992357Y-13887214D01*
X13035214Y-13887214D01*
X13063786Y-13901500D01*
X13078071Y-13930071D01*
X13078071Y-14087214D01*
X13220928Y-14087214D02*
X13220928Y-13887214D01*
X13220928Y-13915786D02*
X13235214Y-13901500D01*
X13263786Y-13887214D01*
X13306643Y-13887214D01*
X13335214Y-13901500D01*
X13349500Y-13930071D01*
X13349500Y-14087214D01*
X13349500Y-13930071D02*
X13363786Y-13901500D01*
X13392357Y-13887214D01*
X13435214Y-13887214D01*
X13463786Y-13901500D01*
X13478071Y-13930071D01*
X13478071Y-14087214D01*
X14063786Y-13772929D02*
X13806643Y-14158643D01*
X14449500Y-13787214D02*
X14478071Y-13787214D01*
X14506643Y-13801500D01*
X14520928Y-13815786D01*
X14535214Y-13844357D01*
X14549500Y-13901500D01*
X14549500Y-13972929D01*
X14535214Y-14030071D01*
X14520928Y-14058643D01*
X14506643Y-14072929D01*
X14478071Y-14087214D01*
X14449500Y-14087214D01*
X14420928Y-14072929D01*
X14406643Y-14058643D01*
X14392357Y-14030071D01*
X14378071Y-13972929D01*
X14378071Y-13901500D01*
X14392357Y-13844357D01*
X14406643Y-13815786D01*
X14420928Y-13801500D01*
X14449500Y-13787214D01*
X14678071Y-14058643D02*
X14692357Y-14072929D01*
X14678071Y-14087214D01*
X14663786Y-14072929D01*
X14678071Y-14058643D01*
X14678071Y-14087214D01*
X14878071Y-13787214D02*
X14906643Y-13787214D01*
X14935214Y-13801500D01*
X14949500Y-13815786D01*
X14963785Y-13844357D01*
X14978071Y-13901500D01*
X14978071Y-13972929D01*
X14963785Y-14030071D01*
X14949500Y-14058643D01*
X14935214Y-14072929D01*
X14906643Y-14087214D01*
X14878071Y-14087214D01*
X14849500Y-14072929D01*
X14835214Y-14058643D01*
X14820928Y-14030071D01*
X14806643Y-13972929D01*
X14806643Y-13901500D01*
X14820928Y-13844357D01*
X14835214Y-13815786D01*
X14849500Y-13801500D01*
X14878071Y-13787214D01*
X15078071Y-13787214D02*
X15263785Y-13787214D01*
X15163785Y-13901500D01*
X15206643Y-13901500D01*
X15235214Y-13915786D01*
X15249500Y-13930071D01*
X15263785Y-13958643D01*
X15263785Y-14030071D01*
X15249500Y-14058643D01*
X15235214Y-14072929D01*
X15206643Y-14087214D01*
X15120928Y-14087214D01*
X15092357Y-14072929D01*
X15078071Y-14058643D01*
X15406643Y-14087214D02*
X15463785Y-14087214D01*
X15492357Y-14072929D01*
X15506643Y-14058643D01*
X15535214Y-14015786D01*
X15549500Y-13958643D01*
X15549500Y-13844357D01*
X15535214Y-13815786D01*
X15520928Y-13801500D01*
X15492357Y-13787214D01*
X15435214Y-13787214D01*
X15406643Y-13801500D01*
X15392357Y-13815786D01*
X15378071Y-13844357D01*
X15378071Y-13915786D01*
X15392357Y-13944357D01*
X15406643Y-13958643D01*
X15435214Y-13972929D01*
X15492357Y-13972929D01*
X15520928Y-13958643D01*
X15535214Y-13944357D01*
X15549500Y-13915786D01*
X15663786Y-13787214D02*
X15663786Y-13844357D01*
X15778071Y-13787214D02*
X15778071Y-13844357D01*
X16220928Y-14201500D02*
X16206643Y-14187214D01*
X16178071Y-14144357D01*
X16163785Y-14115786D01*
X16149500Y-14072929D01*
X16135214Y-14001500D01*
X16135214Y-13944357D01*
X16149500Y-13872929D01*
X16163785Y-13830071D01*
X16178071Y-13801500D01*
X16206643Y-13758643D01*
X16220928Y-13744357D01*
X16378071Y-13915786D02*
X16349500Y-13901500D01*
X16335214Y-13887214D01*
X16320928Y-13858643D01*
X16320928Y-13844357D01*
X16335214Y-13815786D01*
X16349500Y-13801500D01*
X16378071Y-13787214D01*
X16435214Y-13787214D01*
X16463785Y-13801500D01*
X16478071Y-13815786D01*
X16492357Y-13844357D01*
X16492357Y-13858643D01*
X16478071Y-13887214D01*
X16463785Y-13901500D01*
X16435214Y-13915786D01*
X16378071Y-13915786D01*
X16349500Y-13930071D01*
X16335214Y-13944357D01*
X16320928Y-13972929D01*
X16320928Y-14030071D01*
X16335214Y-14058643D01*
X16349500Y-14072929D01*
X16378071Y-14087214D01*
X16435214Y-14087214D01*
X16463785Y-14072929D01*
X16478071Y-14058643D01*
X16492357Y-14030071D01*
X16492357Y-13972929D01*
X16478071Y-13944357D01*
X16463785Y-13930071D01*
X16435214Y-13915786D01*
X16849500Y-14087214D02*
X16849500Y-13787214D01*
X16978071Y-14087214D02*
X16978071Y-13930071D01*
X16963786Y-13901500D01*
X16935214Y-13887214D01*
X16892357Y-13887214D01*
X16863786Y-13901500D01*
X16849500Y-13915786D01*
X17163786Y-14087214D02*
X17135214Y-14072929D01*
X17120928Y-14058643D01*
X17106643Y-14030071D01*
X17106643Y-13944357D01*
X17120928Y-13915786D01*
X17135214Y-13901500D01*
X17163786Y-13887214D01*
X17206643Y-13887214D01*
X17235214Y-13901500D01*
X17249500Y-13915786D01*
X17263786Y-13944357D01*
X17263786Y-14030071D01*
X17249500Y-14058643D01*
X17235214Y-14072929D01*
X17206643Y-14087214D01*
X17163786Y-14087214D01*
X17435214Y-14087214D02*
X17406643Y-14072929D01*
X17392357Y-14044357D01*
X17392357Y-13787214D01*
X17663786Y-14072929D02*
X17635214Y-14087214D01*
X17578071Y-14087214D01*
X17549500Y-14072929D01*
X17535214Y-14044357D01*
X17535214Y-13930071D01*
X17549500Y-13901500D01*
X17578071Y-13887214D01*
X17635214Y-13887214D01*
X17663786Y-13901500D01*
X17678071Y-13930071D01*
X17678071Y-13958643D01*
X17535214Y-13987214D01*
X17792357Y-14072929D02*
X17820929Y-14087214D01*
X17878071Y-14087214D01*
X17906643Y-14072929D01*
X17920929Y-14044357D01*
X17920929Y-14030071D01*
X17906643Y-14001500D01*
X17878071Y-13987214D01*
X17835214Y-13987214D01*
X17806643Y-13972929D01*
X17792357Y-13944357D01*
X17792357Y-13930071D01*
X17806643Y-13901500D01*
X17835214Y-13887214D01*
X17878071Y-13887214D01*
X17906643Y-13901500D01*
X18020928Y-14201500D02*
X18035214Y-14187214D01*
X18063786Y-14144357D01*
X18078071Y-14115786D01*
X18092357Y-14072929D01*
X18106643Y-14001500D01*
X18106643Y-13944357D01*
X18092357Y-13872929D01*
X18078071Y-13830071D01*
X18063786Y-13801500D01*
X18035214Y-13758643D01*
X18020928Y-13744357D01*
X11533133Y-14387014D02*
X11533133Y-14307987D01*
X11454106Y-14307987D01*
X11454106Y-14387014D01*
X11533133Y-14387014D01*
X11978071Y-14483214D02*
X11806643Y-14483214D01*
X11892357Y-14483214D02*
X11892357Y-14183214D01*
X11863786Y-14226071D01*
X11835214Y-14254643D01*
X11806643Y-14268929D01*
X12106643Y-14454643D02*
X12120928Y-14468929D01*
X12106643Y-14483214D01*
X12092357Y-14468929D01*
X12106643Y-14454643D01*
X12106643Y-14483214D01*
X12406643Y-14483214D02*
X12235214Y-14483214D01*
X12320928Y-14483214D02*
X12320928Y-14183214D01*
X12292357Y-14226071D01*
X12263786Y-14254643D01*
X12235214Y-14268929D01*
X12520928Y-14211786D02*
X12535214Y-14197500D01*
X12563786Y-14183214D01*
X12635214Y-14183214D01*
X12663786Y-14197500D01*
X12678071Y-14211786D01*
X12692357Y-14240357D01*
X12692357Y-14268929D01*
X12678071Y-14311786D01*
X12506643Y-14483214D01*
X12692357Y-14483214D01*
X12820928Y-14483214D02*
X12820928Y-14283214D01*
X12820928Y-14311786D02*
X12835214Y-14297500D01*
X12863786Y-14283214D01*
X12906643Y-14283214D01*
X12935214Y-14297500D01*
X12949500Y-14326071D01*
X12949500Y-14483214D01*
X12949500Y-14326071D02*
X12963786Y-14297500D01*
X12992357Y-14283214D01*
X13035214Y-14283214D01*
X13063786Y-14297500D01*
X13078071Y-14326071D01*
X13078071Y-14483214D01*
X13220928Y-14483214D02*
X13220928Y-14283214D01*
X13220928Y-14311786D02*
X13235214Y-14297500D01*
X13263786Y-14283214D01*
X13306643Y-14283214D01*
X13335214Y-14297500D01*
X13349500Y-14326071D01*
X13349500Y-14483214D01*
X13349500Y-14326071D02*
X13363786Y-14297500D01*
X13392357Y-14283214D01*
X13435214Y-14283214D01*
X13463786Y-14297500D01*
X13478071Y-14326071D01*
X13478071Y-14483214D01*
X14063786Y-14168929D02*
X13806643Y-14554643D01*
X14449500Y-14183214D02*
X14478071Y-14183214D01*
X14506643Y-14197500D01*
X14520928Y-14211786D01*
X14535214Y-14240357D01*
X14549500Y-14297500D01*
X14549500Y-14368929D01*
X14535214Y-14426071D01*
X14520928Y-14454643D01*
X14506643Y-14468929D01*
X14478071Y-14483214D01*
X14449500Y-14483214D01*
X14420928Y-14468929D01*
X14406643Y-14454643D01*
X14392357Y-14426071D01*
X14378071Y-14368929D01*
X14378071Y-14297500D01*
X14392357Y-14240357D01*
X14406643Y-14211786D01*
X14420928Y-14197500D01*
X14449500Y-14183214D01*
X14678071Y-14454643D02*
X14692357Y-14468929D01*
X14678071Y-14483214D01*
X14663786Y-14468929D01*
X14678071Y-14454643D01*
X14678071Y-14483214D01*
X14878071Y-14183214D02*
X14906643Y-14183214D01*
X14935214Y-14197500D01*
X14949500Y-14211786D01*
X14963785Y-14240357D01*
X14978071Y-14297500D01*
X14978071Y-14368929D01*
X14963785Y-14426071D01*
X14949500Y-14454643D01*
X14935214Y-14468929D01*
X14906643Y-14483214D01*
X14878071Y-14483214D01*
X14849500Y-14468929D01*
X14835214Y-14454643D01*
X14820928Y-14426071D01*
X14806643Y-14368929D01*
X14806643Y-14297500D01*
X14820928Y-14240357D01*
X14835214Y-14211786D01*
X14849500Y-14197500D01*
X14878071Y-14183214D01*
X15235214Y-14283214D02*
X15235214Y-14483214D01*
X15163785Y-14168929D02*
X15092357Y-14383214D01*
X15278071Y-14383214D01*
X15520928Y-14283214D02*
X15520928Y-14483214D01*
X15449500Y-14168929D02*
X15378071Y-14383214D01*
X15563785Y-14383214D01*
X15663786Y-14183214D02*
X15663786Y-14240357D01*
X15778071Y-14183214D02*
X15778071Y-14240357D01*
X16220928Y-14597500D02*
X16206643Y-14583214D01*
X16178071Y-14540357D01*
X16163785Y-14511786D01*
X16149500Y-14468929D01*
X16135214Y-14397500D01*
X16135214Y-14340357D01*
X16149500Y-14268929D01*
X16163785Y-14226071D01*
X16178071Y-14197500D01*
X16206643Y-14154643D01*
X16220928Y-14140357D01*
X16378071Y-14311786D02*
X16349500Y-14297500D01*
X16335214Y-14283214D01*
X16320928Y-14254643D01*
X16320928Y-14240357D01*
X16335214Y-14211786D01*
X16349500Y-14197500D01*
X16378071Y-14183214D01*
X16435214Y-14183214D01*
X16463785Y-14197500D01*
X16478071Y-14211786D01*
X16492357Y-14240357D01*
X16492357Y-14254643D01*
X16478071Y-14283214D01*
X16463785Y-14297500D01*
X16435214Y-14311786D01*
X16378071Y-14311786D01*
X16349500Y-14326071D01*
X16335214Y-14340357D01*
X16320928Y-14368929D01*
X16320928Y-14426071D01*
X16335214Y-14454643D01*
X16349500Y-14468929D01*
X16378071Y-14483214D01*
X16435214Y-14483214D01*
X16463785Y-14468929D01*
X16478071Y-14454643D01*
X16492357Y-14426071D01*
X16492357Y-14368929D01*
X16478071Y-14340357D01*
X16463785Y-14326071D01*
X16435214Y-14311786D01*
X16849500Y-14483214D02*
X16849500Y-14183214D01*
X16978071Y-14483214D02*
X16978071Y-14326071D01*
X16963786Y-14297500D01*
X16935214Y-14283214D01*
X16892357Y-14283214D01*
X16863786Y-14297500D01*
X16849500Y-14311786D01*
X17163786Y-14483214D02*
X17135214Y-14468929D01*
X17120928Y-14454643D01*
X17106643Y-14426071D01*
X17106643Y-14340357D01*
X17120928Y-14311786D01*
X17135214Y-14297500D01*
X17163786Y-14283214D01*
X17206643Y-14283214D01*
X17235214Y-14297500D01*
X17249500Y-14311786D01*
X17263786Y-14340357D01*
X17263786Y-14426071D01*
X17249500Y-14454643D01*
X17235214Y-14468929D01*
X17206643Y-14483214D01*
X17163786Y-14483214D01*
X17435214Y-14483214D02*
X17406643Y-14468929D01*
X17392357Y-14440357D01*
X17392357Y-14183214D01*
X17663786Y-14468929D02*
X17635214Y-14483214D01*
X17578071Y-14483214D01*
X17549500Y-14468929D01*
X17535214Y-14440357D01*
X17535214Y-14326071D01*
X17549500Y-14297500D01*
X17578071Y-14283214D01*
X17635214Y-14283214D01*
X17663786Y-14297500D01*
X17678071Y-14326071D01*
X17678071Y-14354643D01*
X17535214Y-14383214D01*
X17792357Y-14468929D02*
X17820929Y-14483214D01*
X17878071Y-14483214D01*
X17906643Y-14468929D01*
X17920929Y-14440357D01*
X17920929Y-14426071D01*
X17906643Y-14397500D01*
X17878071Y-14383214D01*
X17835214Y-14383214D01*
X17806643Y-14368929D01*
X17792357Y-14340357D01*
X17792357Y-14326071D01*
X17806643Y-14297500D01*
X17835214Y-14283214D01*
X17878071Y-14283214D01*
X17906643Y-14297500D01*
X18020928Y-14597500D02*
X18035214Y-14583214D01*
X18063786Y-14540357D01*
X18078071Y-14511786D01*
X18092357Y-14468929D01*
X18106643Y-14397500D01*
X18106643Y-14340357D01*
X18092357Y-14268929D01*
X18078071Y-14226071D01*
X18063786Y-14197500D01*
X18035214Y-14154643D01*
X18020928Y-14140357D01*
M02*
