M48
;DRILL file {KiCad 4.0.7} date 11/17/17 03:08:09
;FORMAT={-:-/ absolute / inch / decimal}
FMAT,2
INCH,TZ
T1C0.016
T2C0.031
T3C0.039
T4C0.044
T5C0.060
%
G90
G05
M72
T1
X5.72Y-3.96
X5.96Y-4.46
X5.96Y-5.06
X6.48Y-4.96
T2
X5.65Y-4.45
X5.65Y-5.05
X5.96Y-4.46
X5.96Y-5.06
X6.18Y-4.48
X6.78Y-4.48
T3
X7.14Y-3.96
X7.14Y-4.3537
T4
X6.325Y-3.925
X6.325Y-4.225
X6.425Y-3.925
X6.425Y-4.225
X6.525Y-3.925
X6.525Y-4.225
X6.625Y-3.925
X6.625Y-4.225
T5
X5.72Y-3.96
X5.72Y-4.16
X6.48Y-4.76
X6.48Y-4.96
X7.12Y-4.74
X7.12Y-4.94
T0
M30
