G04 #@! TF.FileFunction,Copper,L1,Top,Signal*
%FSLAX46Y46*%
G04 Gerber Fmt 4.6, Leading zero omitted, Abs format (unit mm)*
G04 Created by KiCad (PCBNEW 4.0.7) date 11/13/17 00:53:45*
%MOMM*%
%LPD*%
G01*
G04 APERTURE LIST*
%ADD10C,0.100000*%
%ADD11C,2.000000*%
%ADD12R,1.700000X1.700000*%
%ADD13O,1.700000X1.700000*%
%ADD14C,1.600000*%
%ADD15O,1.600000X1.600000*%
%ADD16R,1.676400X1.676400*%
%ADD17C,1.676400*%
%ADD18C,0.600000*%
%ADD19C,0.250000*%
G04 APERTURE END LIST*
D10*
D11*
X132080000Y-104140000D03*
X132080000Y-111640000D03*
D12*
X148590000Y-114300000D03*
D13*
X151130000Y-114300000D03*
D12*
X160020000Y-114300000D03*
D13*
X162560000Y-114300000D03*
D12*
X162560000Y-92710000D03*
D13*
X160020000Y-92710000D03*
D14*
X162560000Y-107950000D03*
D15*
X162560000Y-97790000D03*
D14*
X130810000Y-93980000D03*
D15*
X120650000Y-93980000D03*
D14*
X120650000Y-102870000D03*
D15*
X120650000Y-113030000D03*
D16*
X143510000Y-106680000D03*
D17*
X146050000Y-106680000D03*
X148590000Y-106680000D03*
X151130000Y-106680000D03*
X151130000Y-99060000D03*
X148590000Y-99060000D03*
X146050000Y-99060000D03*
X143510000Y-99060000D03*
D18*
X132080000Y-111640000D03*
X160020000Y-114300000D03*
X160020000Y-92710000D03*
D19*
X146050000Y-109220000D02*
X142240000Y-109220000D01*
X120650000Y-96520000D02*
X120650000Y-93980000D01*
X121920000Y-97790000D02*
X120650000Y-96520000D01*
X138430000Y-97790000D02*
X121920000Y-97790000D01*
X138430000Y-105410000D02*
X138430000Y-97790000D01*
X142240000Y-109220000D02*
X138430000Y-105410000D01*
X162560000Y-107950000D02*
X162560000Y-109220000D01*
X146050000Y-109220000D02*
X146050000Y-106680000D01*
X162560000Y-109220000D02*
X146050000Y-109220000D01*
X132080000Y-111640000D02*
X132200000Y-111760000D01*
X132200000Y-111760000D02*
X151130000Y-111760000D01*
X151130000Y-111760000D02*
X151130000Y-114300000D01*
X151130000Y-114300000D02*
X160020000Y-114300000D01*
X160020000Y-92710000D02*
X146050000Y-92710000D01*
X146050000Y-92710000D02*
X146050000Y-99060000D01*
M02*
